<svg xmlns="http://www.w3.org/2000/svg" xmlns:xlink="http://www.w3.org/1999/xlink" width="500" zoomAndPan="magnify" viewBox="0 0 375 374.999991" height="500" preserveAspectRatio="xMidYMid meet" version="1.0"><defs><g/></defs><g fill="#000000" fill-opacity="1"><g transform="translate(12.178131, 364.499976)"><g><path d="M 12.03125 2.515625 C 8.019531 2.515625 4.675781 1.925781 2 0.75 C -0.664062 -0.414062 -2 -2.335938 -2 -5.015625 C -2 -8.023438 -0.75 -10.363281 1.75 -12.03125 C 4.257812 -13.707031 7.519531 -15.210938 11.53125 -16.546875 C 20.894531 -19.554688 29.421875 -23.65625 37.109375 -28.84375 C 44.804688 -34.03125 50.492188 -41.640625 54.171875 -51.671875 L 140.453125 -277.390625 C 141.785156 -280.398438 143.203125 -283.492188 144.703125 -286.671875 C 146.210938 -289.847656 147.640625 -293.609375 148.984375 -297.953125 C 150.316406 -301.628906 150.984375 -305.640625 150.984375 -309.984375 C 150.984375 -314.335938 151.316406 -316.679688 151.984375 -317.015625 C 157.003906 -318.359375 161.519531 -319.945312 165.53125 -321.78125 C 169.539062 -323.625 173.722656 -325.378906 178.078125 -327.046875 C 184.429688 -329.390625 189.363281 -332.148438 192.875 -335.328125 C 196.382812 -338.503906 199.304688 -340.09375 201.640625 -340.09375 C 204.648438 -340.09375 207.328125 -336.914062 209.671875 -330.5625 L 295.453125 -56.1875 C 298.460938 -47.15625 302.140625 -39.960938 306.484375 -34.609375 C 310.828125 -29.253906 315.925781 -25.238281 321.78125 -22.5625 C 327.632812 -19.894531 333.738281 -17.554688 340.09375 -15.546875 C 344.4375 -14.546875 347.78125 -13.207031 350.125 -11.53125 C 352.46875 -9.863281 353.640625 -7.523438 353.640625 -4.515625 C 353.640625 -2.503906 352.550781 -1 350.375 0 C 348.195312 1 345.4375 1.5 342.09375 1.5 C 336.070312 1.5 328.378906 1.332031 319.015625 1 C 309.660156 0.664062 300.050781 0.25 290.1875 -0.25 C 280.320312 -0.75 271.539062 -1 263.84375 -1 C 257.488281 -1 250.296875 -0.832031 242.265625 -0.5 C 234.242188 -0.164062 226.472656 0.164062 218.953125 0.5 C 211.429688 0.832031 204.660156 1 198.640625 1 C 195.296875 1 192.453125 0.414062 190.109375 -0.75 C 187.765625 -1.925781 186.59375 -3.679688 186.59375 -6.015625 C 186.59375 -8.691406 187.929688 -10.863281 190.609375 -12.53125 C 193.285156 -14.207031 196.460938 -15.546875 200.140625 -16.546875 C 212.847656 -19.890625 221.539062 -23.816406 226.21875 -28.328125 C 230.90625 -32.847656 231.742188 -40.289062 228.734375 -50.65625 L 169.546875 -269.359375 C 168.203125 -274.046875 167.03125 -276.390625 166.03125 -276.390625 C 165.363281 -276.390625 164.191406 -274.210938 162.515625 -269.859375 L 90.296875 -53.171875 C 86.953125 -43.140625 87.953125 -35.195312 93.296875 -29.34375 C 98.648438 -23.488281 107.515625 -19.054688 119.890625 -16.046875 C 128.910156 -13.710938 133.421875 -10.203125 133.421875 -5.515625 C 133.421875 -3.515625 132.414062 -1.925781 130.40625 -0.75 C 128.40625 0.414062 125.398438 1 121.390625 1 C 113.359375 1 105.414062 0.75 97.5625 0.25 C 89.707031 -0.25 80.929688 -0.5 71.234375 -0.5 C 60.859375 -0.5 50.820312 0 41.125 1 C 31.425781 2.007812 21.726562 2.515625 12.03125 2.515625 Z M 12.03125 2.515625 "/></g></g></g></svg>